<?xml version="1.0" encoding="iso-8859-1"?>
<!-- Generator: Adobe Illustrator 19.0.0, SVG Export Plug-In . SVG Version: 6.00 Build 0)  -->
<svg version="1.1" id="Capa_1" xmlns="http://www.w3.org/2000/svg" xmlns:xlink="http://www.w3.org/1999/xlink" x="0px" y="0px"
	 viewBox="0 0 512 512" style="enable-background:new 0 0 512 512;" xml:space="preserve">
<g>
	<g>
		<g>
			<path d="M122.4,378.4L64,436.8l-10.4-10.4c-3.2-3.2-8-3.2-11.2,0c-3.2,3.2-3.2,8,0,11.2l16,16c1.6,1.6,3.2,2.4,5.6,2.4
				s4-0.8,5.6-2.4l64-64c3.2-3.2,3.2-8,0-11.2C130.4,375.2,125.6,375.2,122.4,378.4z"/>
			<path d="M202.4,370.4c-4-1.6-8.8,0-10.4,4l-5.6,12c-4.8-13.6-12.8-26.4-23.2-36.8c-37.6-37.6-98.4-37.6-136,0
				C9.6,366.4,0,390.4,0,416c0,25.6,9.6,49.6,28,68c19.2,18.4,43.2,28,68,28s49.6-9.6,68-28c3.2-3.2,3.2-8,0-11.2s-8-3.2-11.2,0
				c-31.2,31.2-82.4,31.2-113.6,0C24,457.6,16,437.6,16,416c0-21.6,8-41.6,23.2-56.8c31.2-31.2,82.4-31.2,113.6,0
				c9.6,9.6,16.8,21.6,20.8,35.2l-17.6-9.6c-4-2.4-8.8-0.8-11.2,3.2c-2.4,4-0.8,8.8,3.2,11.2l32,16.8c0,0,0.8,0,0.8,0.8
				c0.8,0,1.6,0.8,2.4,0.8c0,0,0,0,0.8,0s0.8,0,1.6,0c0,0,0,0,0.8,0s0.8-0.8,1.6-0.8c0.8,0,0.8-0.8,0.8-0.8c0.8-0.8,0.8-0.8,0.8-1.6
				l0.8-0.8l16-32.8C208,376.8,206.4,372,202.4,370.4z"/>
			<path d="M272,88c-4.8,0-8,3.2-8,8v72v0.8v76.8c0,2.4,0.8,4.8,3.2,6.4l53.6,41.6c-2.4,2.4-4.8,5.6-7.2,7.2l10.4,12
				c4-3.2,7.2-6.4,10.4-9.6l44,34.4c1.6,0.8,3.2,1.6,4.8,1.6c2.4,0,4.8-0.8,6.4-3.2c2.4-3.2,2.4-8.8-1.6-11.2l-44.8-35.2
				c2.4-4,4.8-8.8,6.4-13.6l-15.2-4.8c-0.8,3.2-2.4,5.6-4,8.8L280,241.6V184l1.6-14.4c-0.8,0-1.6,0-1.6,0V96
				C280,91.2,276.8,88,272,88z"/>
			<path d="M188.8,250.4c0,4.8,0,8.8,0.8,13.6l16-2.4c-0.8-4-0.8-7.2-0.8-11.2c0-0.8,0-2.4,0-3.2l-16-0.8
				C188.8,247.2,188.8,248.8,188.8,250.4z"/>
			<path d="M190.4,236.8l16,2.4c0.8-4.8,2.4-9.6,4-13.6l-15.2-5.6C192.8,224.8,191.2,231.2,190.4,236.8z"/>
			<path d="M287.2,186.4c4.8,0.8,9.6,3.2,13.6,4.8l7.2-14.4c-5.6-2.4-11.2-4.8-16.8-6.4L287.2,186.4z"/>
			<path d="M199.2,211.2l14.4,7.2c2.4-4,4.8-8,8-12l-12-10.4C205.6,200.8,201.6,206.4,199.2,211.2z"/>
			<path d="M237.6,175.2l6.4,14.4c4.8-1.6,8.8-3.2,13.6-4l-3.2-16C248.8,171.2,243.2,172.8,237.6,175.2z"/>
			<path d="M322.4,209.6c3.2,4,5.6,8,8,12l14.4-7.2c-2.4-5.6-5.6-10.4-9.6-15.2L322.4,209.6z"/>
			<path d="M273.6,332c6.4,0,12-0.8,17.6-2.4l-4-15.2c-4.8,0.8-9.6,1.6-14.4,1.6L273.6,332z"/>
			<path d="M246.4,328c5.6,1.6,12,3.2,17.6,3.2l1.6-16c-4.8,0-9.6-1.6-14.4-2.4L246.4,328z"/>
			<path d="M294.4,312l5.6,15.2c5.6-2.4,11.2-4.8,16-8l-8.8-13.6C303.2,308,298.4,310.4,294.4,312z"/>
			<path d="M216,309.6l10.4-11.2c-3.2-3.2-6.4-7.2-9.6-11.2L204,296C207.2,300.8,211.2,305.6,216,309.6z"/>
			<path d="M306.4,195.2c4,2.4,8,5.6,11.2,8.8l11.2-11.2c-4-4-8.8-8-13.6-11.2L306.4,195.2z"/>
			<path d="M332.8,228.8c1.6,4.8,2.4,9.6,3.2,14.4l16-1.6c-0.8-5.6-2.4-12-4-17.6L332.8,228.8z"/>
			<path d="M215.2,190.4l11.2,12c3.2-3.2,7.2-6.4,12-8.8l-8-13.6C224.8,182.4,220,186.4,215.2,190.4z"/>
			<path d="M244.8,310.4c-4.8-1.6-8.8-4-12.8-7.2l-9.6,12.8c4.8,3.2,10.4,6.4,15.2,8.8L244.8,310.4z"/>
			<path d="M335.2,264l16,3.2c1.6-5.6,1.6-11.2,1.6-19.2h-1.6l-14.4,0.8C336.8,253.6,336,259.2,335.2,264z"/>
			<path d="M192,272.8c1.6,5.6,4,11.2,7.2,16.8l14.4-8c-2.4-4-4-8.8-5.6-13.6L192,272.8z"/>
			<path d="M441.6,75.2c0-0.8-0.8-1.6-1.6-2.4c-0.8-0.8-1.6-0.8-2.4-1.6C394.4,28.8,336.8,2.4,272.8,0H272h-0.8c-2.4,0-4.8,0-7.2,0
				C130.4,0,20.8,106.4,16,239.2v0.8v0.8c0,2.4,0,4.8,0,7.2c0,8,0.8,16.8,1.6,24.8c0.8,5.6,1.6,11.2,2.4,16.8c0,4,4,7.2,8.8,6.4
				c4-0.8,7.2-4.8,6.4-9.6c-0.8-4.8-1.6-10.4-2.4-15.2C32,263.2,32,256,32,248h24c4.8,0,8-3.2,8-8s-3.2-8-8-8H32.8
				C36.8,176.8,60,126.4,96,88.8l12.8,12.8c1.6,1.6,4,2.4,5.6,2.4c1.6,0,4-0.8,5.6-2.4c3.2-3.2,3.2-8,0-11.2l-12.8-12.8
				C148,39.2,203.2,16,264,16v16c0,4.8,3.2,8,8,8s8-3.2,8-8V16.8c54.4,4,104,26.4,142.4,61.6l-12,12c-3.2,3.2-3.2,8,0,11.2
				c1.6,1.6,4,2.4,5.6,2.4c1.6,0,4-0.8,5.6-2.4l12-12c35.2,37.6,58.4,87.2,61.6,142.4H480c-4.8,0-8,3.2-8,8c0,4.8,3.2,8,8,8h16
				c0,60.8-23.2,116-61.6,157.6l-12.8-12.8c-3.2-3.2-8-3.2-11.2,0s-3.2,8,0,11.2l12.8,12.8c-37.6,36-88,59.2-143.2,63.2v-16
				c0-4.8-3.2-8-8-8s-8,3.2-8,8v16c-14.4,0-28.8-1.6-42.4-4c-4-0.8-8.8,2.4-9.6,6.4s2.4,8.8,6.4,9.6c15.2,2.4,30.4,4,45.6,4
				c2.4,0,4.8,0,7.2,0h0.8c0.8,0,0.8,0,0.8,0C405.6,491.2,512,381.6,512,248c0-2.4,0-4.8,0-7.2V240c0-0.8,0-0.8,0-0.8
				C509.6,175.2,483.2,117.6,441.6,75.2z"/>
		</g>
	</g>
</g>
<g>
</g>
<g>
</g>
<g>
</g>
<g>
</g>
<g>
</g>
<g>
</g>
<g>
</g>
<g>
</g>
<g>
</g>
<g>
</g>
<g>
</g>
<g>
</g>
<g>
</g>
<g>
</g>
<g>
</g>
</svg>
